<?xml version="1.0" encoding="UTF-8"?>
<svg id="Capa_1" data-name="Capa 1" xmlns="http://www.w3.org/2000/svg" viewBox="0 0 701.41 624.54">
  <path d="m40.6,436.03c5.14-1.14,10.52,5.94,14.07,8.73,5.27,4.14,10.85,8.19,15.66,12.86,10.42,10.1,22.23,18.49,34.24,26.72,25.25,17.31,52.1,32.44,80.07,44.91,55.29,24.65,117.74,36.31,178.11,29.42,29.48-3.36,60.34-11.62,87.93-22.49,13.25-5.22,26.18-11.5,38.43-18.78,12.46-7.4,23.35-16.64,35.12-25.01,23.42-16.64,42.13-38.37,61.49-59.44,4.79-5.21,9.48-10.52,14.08-15.89,1.88-2.19,12.22-11.64,11.17-14.69-.62-1.82-6.56-4.41-7.94-5.32-3.11-2.03-6.31-3.97-9.35-6.1-2.44-1.71-4.22-2.03-2.89-4.61,1.3-2.52,8.31-5.74,10.72-7.36,25.84-17.41,51.6-34.93,77.39-52.41,3.23-2.19,13.14-11.55,15.78-7.85.97,1.35.28,7.81.37,9.34.23,3.93.46,7.87.68,11.8.85,14.9,1.4,29.81,2.15,44.72.72,14.43,1.9,28.83,2.61,43.26.14,2.94,2.47,14.35-.88,15.26-1.79.49-7.52-3.31-8.94-3.95-3.06-1.39-7.68-4.88-10.98-4.94-4.42-.08-9.34,9.85-12.21,13.43-4.7,5.86-9.6,11.57-14.59,17.19-9.79,11.04-20.03,21.67-30.75,31.81-43.68,41.32-93.99,76.04-149.94,98.53-55.57,22.35-116.06,31.52-175.75,28.95-59.77-2.56-118.41-21.61-171.19-49.06-26.97-14.02-52.59-30.47-77.05-48.49-12.24-9.02-24.5-18.15-36.08-28.01-5.48-4.67-9.64-7.86-10.59-15.22-.91-7.02-2.33-14.22-1-21.26,2.7-14.22,10.94-17.85,22.75-23.4,4.98-2.34,10.36-2.01,17.3-2.64Z" fill="#ffffff"/>
  <path d="m486.21,368.2c0-69.63-.33-139.25-.4-208.88-.04-35.41-.13-70.81-.17-106.22,0-8.05-.02-16.1-.04-24.16-.02-9.68,2.46-13.68,10.09-19.77,11.31-9.03,25.96-12.09,39.41-6,5.1,2.31,14.62,7.31,17.01,12.7,1.14,2.57.33,7.18.33,9.83,0,4.84.02,9.68.03,14.52.06,17.75.15,35.5.09,53.24-.1,34.87-.54,69.74-.51,104.62.05,70.28-.54,140.55-.57,210.83,0,6.77,2.37,18.33-1.67,24.12-2.47,3.54-7.77,6.29-11.13,8.98-3.65,2.91-7.28,5.85-10.93,8.75-7.26,5.77-14.75,11.21-22.1,16.86-2.32,1.78-16.18,14.99-18.48,13.43-3.33-2.26-.86-21.73-.85-25.59,0-9.45,0-18.89,0-28.34,0-19.64,0-39.28,0-58.92-.04,0-.09,0-.13,0Z" fill="#ffffff"/>
  <path d="m426.64,247.49c0,64.15-.51,128.42.76,192.57.31,15.81.18,31.62.19,47.43,0,4.22.02,8.43.05,12.65.01,1.55.71,5.53-.21,6.93-2.27,3.46-10.44,4.47-14.16,5.61-14.02,4.3-28.33,7.31-42.83,9.5-7.37,1.11-7.14-.01-7.14-7.07-.01-8.49,0-16.97.02-25.46.1-63.96-.19-127.95-.91-191.9-.36-31.96.03-63.92-.28-95.87-.15-16.03-.51-32.04-.49-48.07.02-12.9-4.23-31.43,5.53-41.43,11.19-11.47,27.21-16.69,42.11-9.25,5.33,2.66,13.83,7.87,16.16,13.67,2.42,6.02.62,15.98.59,22.37-.17,36.1.48,72.21.48,108.32h.13Z" fill="#ffffff"/>
  <path d="m298.85,374.82c0,47.47,0,94.95,0,142.42,0,1.06.04,2.13-.04,3.19-.16,2.03-.47,2.28-2.54,2.07-5.58-.56-11.1-1.52-16.61-2.58-14.64-2.8-29.02-6.62-43.1-11.53-4.13-1.44-3.96-.98-3.96-5.76,0-25.14.37-50.29-.1-75.42-.57-30.74-.2-61.48-.34-92.22-.15-32.2-.1-64.39-.17-96.59,0-1.82.44-3.33,1.51-4.84,4.7-6.63,10.26-12.35,17.29-16.47,11.48-6.74,23.1-6.86,34.65-.15,4.27,2.48,8.12,5.58,11.7,9,1.21,1.16,1.79,2.47,1.7,4.12-.05.96,0,1.93,0,2.9,0,47.28,0,94.56,0,141.84Z" fill="#ffffff"/>
  <path d="m173.5,408.63c0,14.06,0,28.11,0,42.17,0,6.77,0,13.53-.01,20.3,0,3.88,1.83,10.75-2.95,9.23-4.5-1.43-10.6-8.84-14.43-11.7-5.79-4.34-11.77-8.43-17.58-12.74-5.32-3.95-10.54-8.04-15.6-12.32-4.04-3.41-11.11-7.88-13.61-12.63-2.33-4.42-.86-11.57-.84-16.42.04-7.27.09-14.55.05-21.82-.07-13.56.45-27.09.45-40.65,0-5.93-1.18-12.23,2.58-17.19,3.33-4.38,8.51-8.19,13.27-10.87,10.7-6.02,22.6-6.49,33.42-.54,4.62,2.54,12.85,7.62,14.95,12.62,2.43,5.77.3,16.06.3,22.27,0,16.76,0,33.53,0,50.29Z" fill="#ffffff"/>
</svg>