
<svg xmlns="http://www.w3.org/2000/svg" version="1.1" xmlns:xlink="http://www.w3.org/1999/xlink" xmlns:svgjs="http://svgjs.com/svgjs" width="512" height="512" x="0" y="0" viewBox="0 0 512 512" style="enable-background:new 0 0 512 512" xml:space="preserve" class="">
<g>
<linearGradient id="a" x1="133.973" x2="464.017" y1="349.661" y2="19.617" gradientUnits="userSpaceOnUse">
<stop offset="0" style="stop-color:#FFFFFF;stop-opacity:0">
</stop>
<stop offset=".262" style="stop-color:#EDEDFF;stop-opacity:0.4161">
</stop>
<stop offset=".629" style="stop-color:#D8D8FF">
</stop>
</linearGradient>
<path d="M494.015 69.353c-36.472-124.285-145.558-4.409-220.482.663C209.932 74.321 171.059.773 113.739.773c-141.961 0-162.894 219.2 5.249 294.594 86.705 38.878 92.947 163.447 173.51 204.657 39.131 20.016 116.485 15.411 131.877-31.863 6.253-19.205-6.976-39.98-4.299-59.996 4.72-35.289 20.232-69.048 42.149-99.167 65.993-90.686 54.904-160.879 31.79-239.645z" style="fill:url(#a);" fill="">
</path>
<path d="M402.527 200.048c3.853 39.989 15.659 69.099 29.627 69.099 17.096 0 30.956-43.606 30.956-97.398 0-53.791-13.859-97.397-30.956-97.397-11.639 0-21.776 20.213-27.062 50.088h-61.697a95.349 95.349 0 0 1-36.26-7.171l-53.772-22.138a14.79 14.79 0 0 0-12.29.471l-72.836 36.716c-5.391 2.721-7.598 9.267-4.95 14.688.258.528.55 1.03.857 1.517l-6.139 2.468a11.216 11.216 0 0 0-6.634 13.371l.306 1.116c2.383 8.698 11.35 13.832 20.057 11.485l16.499-4.448a127.704 127.704 0 0 0-43.088 45.366c-2.627-4.331-7.37-7.234-12.807-7.234-.344 0-.681.029-1.019.052l-24.126-55.775c2.948-2.739 4.803-6.638 4.803-10.979 0-8.284-6.716-15-15-15-8.284 0-15 6.716-15 15s6.716 15 15 15c.344 0 .681-.029 1.019-.052l24.126 55.775c-2.948 2.739-4.803 6.638-4.803 10.979 0 8.284 6.716 15 15 15 1.006 0 1.981-.121 2.931-.31a126.902 126.902 0 0 0-6.327 39.666c0 28.594 9.448 54.981 25.389 76.213l-13.953 3.739h-30.904c-3.853-39.989-15.659-69.099-29.627-69.099-17.096 0-30.956 43.606-30.956 97.398s13.859 97.398 30.956 97.398c11.639 0 21.776-20.213 27.062-50.088h61.697a95.349 95.349 0 0 1 36.26 7.171l53.772 22.138a14.79 14.79 0 0 0 12.29-.471l72.836-36.716c5.391-2.721 7.598-9.267 4.95-14.688-.258-.528-.55-1.03-.857-1.517l6.139-2.468a11.216 11.216 0 0 0 6.634-13.371l-.306-1.116c-2.383-8.698-11.35-13.832-20.057-11.485l-16.499 4.448c26.652-16.839 46.606-43.313 54.969-74.53l29.282 9.75c.112 6.038 3.782 11.201 9.01 13.476l-4.548 64.937c-6.339 1.752-11 7.547-11 14.444 0 8.284 6.716 15 15 15 8.284 0 15-6.716 15-15 0-6.159-3.716-11.446-9.025-13.755l4.549-64.936c6.339-1.753 10.999-7.547 10.999-14.444 0-8.284-6.716-15-15-15-4.81 0-9.079 2.272-11.824 5.792l-30.243-10.07a127.689 127.689 0 0 0 2.121-23.151c0-28.594-9.448-54.981-25.389-76.213l13.953-3.739h30.905z" style="opacity:0.1;" fill="#1F1F1F" data-original="#1F1F1F"></path><path d="m96.995 119.941 35.342 81.703 290.668 96.785-6.523 93.135" style="stroke-width:10;stroke-linecap:round;stroke-linejoin:round;stroke-miterlimit:10;" fill="none" stroke="#1F1F1F" stroke-width="10" stroke-linecap="round" stroke-linejoin="round" stroke-miterlimit="10" data-original="#1F1F1F" class=""></path><circle cx="132.337" cy="201.644" r="15" style="" fill="#ff4d4d" data-original="#ff4d4d"></circle><circle cx="132.337" cy="201.644" r="15" style="stroke-width:10;stroke-linecap:round;stroke-linejoin:round;stroke-miterlimit:10;" fill="none" stroke="#1F1F1F" stroke-width="10" stroke-linecap="round" stroke-linejoin="round" stroke-miterlimit="10" data-original="#1F1F1F" class=""></circle><circle cx="96.995" cy="119.941" r="15" style="" fill="#ff4d4d" data-original="#ff4d4d"></circle><circle cx="96.995" cy="119.941" r="15" style="stroke-width:10;stroke-linecap:round;stroke-linejoin:round;stroke-miterlimit:10;" fill="none" stroke="#1F1F1F" stroke-width="10" stroke-linecap="round" stroke-linejoin="round" stroke-miterlimit="10" data-original="#1F1F1F" class=""></circle><path d="m360.629 371.641-.306-1.116c-2.383-8.698-11.35-13.832-20.057-11.485l-78.231 21.09a15.368 15.368 0 0 1-8.504-.144l-48.7-14.916-2.716 35.067 62.092 20.969 89.788-36.096a11.213 11.213 0 0 0 6.634-13.369z" style="" fill="#ffb2b2" data-original="#ffb2b2"></path><path d="m360.629 371.641-.306-1.116c-2.383-8.698-11.35-13.832-20.057-11.485l-78.231 21.09a15.368 15.368 0 0 1-8.504-.144l-48.7-14.916-2.716 35.067 62.092 20.969 89.788-36.096a11.213 11.213 0 0 0 6.634-13.369z" style="stroke-width:10;stroke-linecap:round;stroke-linejoin:round;stroke-miterlimit:10;" fill="none" stroke="#1F1F1F" stroke-width="10" stroke-linecap="round" stroke-linejoin="round" stroke-miterlimit="10" data-original="#1F1F1F" class=""></path><ellipse cx="432.154" cy="147.749" rx="30.956" ry="97.398" style="" fill="#ff6c6c" data-original="#ff6c6c"></ellipse><path d="M401.407 158.987c.648 17.728 2.805 34.011 6.062 47.533l24.154-6.473h26.649c2.458-12.124 4.083-26.076 4.631-41.061h-61.496z" style="" fill="#ff4d4d" data-original="#ff4d4d"></path><path d="M463.109 147.749c0-32.629-5.1-61.507-12.929-79.182-12.026 6.514-21.176 39.484-21.176 79.182s9.15 72.668 21.176 79.182c7.829-17.675 12.929-46.553 12.929-79.182z" style="" fill="#ff4d4d" data-original="#ff4d4d"></path><path d="M429.255 158.987c.693 15.56 2.801 29.689 5.903 41.061h23.112c2.458-12.124 4.085-26.076 4.632-41.061h-33.647z" style="" fill="#ff2c2c" data-original="#ff2c2c"></path><path d="m151.37 140.359.306 1.116c2.383 8.698 11.35 13.832 20.057 11.485l78.231-21.09a15.368 15.368 0 0 1 8.504.144l48.7 14.916 2.716-35.067-62.092-20.969-89.788 36.096a11.215 11.215 0 0 0-6.634 13.369z" style="" fill="#ffb2b2" data-original="#ffb2b2"></path><path d="m151.37 140.359.306 1.116c2.383 8.698 11.35 13.832 20.057 11.485l78.231-21.09a15.368 15.368 0 0 1 8.504.144l48.7 14.916 2.716-35.067-62.092-20.969-89.788 36.096a11.215 11.215 0 0 0-6.634 13.369z" style="stroke-width:10;stroke-linecap:round;stroke-linejoin:round;stroke-miterlimit:10;" fill="none" stroke="#1F1F1F" stroke-width="10" stroke-linecap="round" stroke-linejoin="round" stroke-miterlimit="10" data-original="#1F1F1F" class=""></path><circle cx="256" cy="256" r="127.059" style="" fill="#9393ff" data-original="#9393ff" class=""></circle><path d="M256.98 128.954c.039.021.08.037.118.06l30.935 17.895a24.997 24.997 0 0 1 1.825 42.108l-38.231 26.794c-9.304 6.509-11.864 19.174-5.84 28.795a10.415 10.415 0 0 0 8.833 4.876c1.729 0 3.486-.427 5.097-1.339l61.186-34.502 49.374-13.231c-20.486-42.036-63.478-71.079-113.297-71.456zM216.3 376.724a24.91 24.91 0 0 1 5.842-5.739l38.231-26.794c9.304-6.509 11.864-19.174 5.84-28.795a10.415 10.415 0 0 0-8.833-4.876c-1.729 0-3.486.427-5.097 1.339l-61.186 34.502-18.961 5.081c12.723 11.188 27.7 19.871 44.164 25.282z" style="" fill="#8282ff" data-original="#8282ff"></path><path d="M161.142 340.537c24.917-18.231 58.248-29.349 94.859-29.349s69.942 11.119 94.859 29.349M161.142 171.454c24.917 18.231 58.248 29.349 94.859 29.349s69.942-11.119 94.859-29.349M256 128.941v254.118M128.941 256h254.118" style="stroke-width:10;stroke-linecap:round;stroke-linejoin:round;stroke-miterlimit:10;" fill="none" stroke="#6c6cff" stroke-width="10" stroke-linecap="round" stroke-linejoin="round" stroke-miterlimit="10" data-original="#6c6cff" class=""></path><ellipse cx="256" cy="256" rx="73.2" ry="127.059" style="stroke-width:10;stroke-linecap:round;stroke-linejoin:round;stroke-miterlimit:10;" fill="none" stroke="#6c6cff" stroke-width="10" stroke-linecap="round" stroke-linejoin="round" stroke-miterlimit="10" data-original="#6c6cff" class=""></ellipse><path d="M208.572 343.348a123.752 123.752 0 0 1-2.835-5.243l-8.719 4.917a132.557 132.557 0 0 0 2.889 5.318c5.818 10.099 12.442 18.401 19.641 24.763a24.618 24.618 0 0 1 2.594-2.118l5.671-3.974c-7.011-5.775-13.515-13.725-19.241-23.663zM312.093 163.66l-8.665 4.992c7.516 13.046 13.136 28.539 16.622 45.468l.853-.481 8.756-2.346c-3.719-17.668-9.651-33.894-17.566-47.633z" style="" fill="#4d4dff" data-original="#4d4dff"></path><path d="M196.318 368.193c17.793 9.487 38.109 14.865 59.682 14.865 70.173 0 127.059-56.886 127.059-127.059S326.173 128.94 256 128.94 128.941 185.827 128.941 256c0 17.692 3.62 34.537 10.153 49.841" style="stroke-width:10;stroke-linecap:round;stroke-linejoin:round;stroke-miterlimit:10;" fill="none" stroke="#1F1F1F" stroke-width="10" stroke-linecap="round" stroke-linejoin="round" stroke-miterlimit="10" data-original="#1F1F1F" class=""></path><path d="M261 209.24v38.18l-1.28.72c-1.61.91-3.37 1.34-5.1 1.34-1.24 0-2.47-.22-3.62-.66v-32.54c.21-.17.42-.32.63-.47l9.37-6.57zM257.38 310.52c1.24 0 2.47.22 3.62.66v32.54c-.21.17-.42.32-.63.47l-9.37 6.57v-38.18l1.28-.72c1.61-.91 3.37-1.34 5.1-1.34z" style="" fill="#4d4dff" data-original="#4d4dff"></path><path d="M463.11 147.746c0 9.841-.463 19.344-1.331 28.302h-90.155l-50.72 13.592-61.186 34.502a10.321 10.321 0 0 1-5.097 1.339 10.416 10.416 0 0 1-8.833-4.876c-6.024-9.62-3.464-22.286 5.84-28.795l38.231-26.794a24.985 24.985 0 0 0 9.811-26.912 24.994 24.994 0 0 0-11.636-15.195l-30.935-17.895a8.218 8.218 0 0 0-7.156-.515l-66.209 26.404a16.027 16.027 0 0 1-5.965 1.147 16.124 16.124 0 0 1-14.482-9.047c-2.648-5.421-.441-11.966 4.95-14.688L241.072 71.6a14.794 14.794 0 0 1 12.29-.471l53.772 22.138a95.349 95.349 0 0 0 36.26 7.171h115.817c2.486 14.004 3.899 30.134 3.899 47.308z" style="" fill="#ffd8d8" data-original="#ffd8d8" class=""></path><path d="M459.211 100.439h-72.467M358.361 100.439h-14.966a95.349 95.349 0 0 1-36.26-7.171L253.363 71.13a14.79 14.79 0 0 0-12.29.471l-72.836 36.716c-5.391 2.721-7.598 9.267-4.95 14.688a16.126 16.126 0 0 0 14.482 9.047c1.993 0 4.016-.368 5.965-1.147l66.209-26.404a8.218 8.218 0 0 1 7.156.515l30.935 17.895a24.997 24.997 0 0 1 1.825 42.108l-38.231 26.794c-9.304 6.509-11.864 19.174-5.84 28.795a10.415 10.415 0 0 0 8.833 4.876c1.729 0 3.486-.427 5.097-1.339l61.186-34.502 50.72-13.592h90.155" style="stroke-width:10;stroke-linecap:round;stroke-linejoin:round;stroke-miterlimit:10;" fill="none" stroke="#1F1F1F" stroke-width="10" stroke-linecap="round" stroke-linejoin="round" stroke-miterlimit="10" data-original="#1F1F1F" class=""></path><ellipse cx="79.846" cy="364.251" rx="30.956" ry="97.398" style="" fill="#ffaa66" data-original="#ffaa66"></ellipse><path d="M110.802 364.251c0-1.441-.012-2.873-.032-4.299H48.922a306.34 306.34 0 0 0-.032 4.299c0 28.162 3.8 53.527 9.874 71.31h42.164c6.074-17.782 9.874-43.148 9.874-71.31z" style="" fill="#ff9c33" data-original="#ff9c33"></path><path d="M48.891 364.251c0 32.629 5.1 61.507 12.929 79.182 12.026-6.514 21.176-39.484 21.176-79.182s-9.15-72.668-21.176-79.182c-7.829 17.675-12.929 46.553-12.929 79.182z" style="" fill="#ff9c33" data-original="#ff9c33"></path><path d="M82.995 364.251c0-1.443-.016-2.875-.04-4.299H48.924c-.02 1.426-.033 2.857-.033 4.299 0 28.165 3.802 53.528 9.877 71.31h10.469c8.175-13.396 13.758-40.3 13.758-71.31z" style="" fill="#ff8a00" data-original="#ff8a00"></path><path d="M48.89 364.254c0-9.841.463-19.344 1.331-28.302h90.155l50.72-13.592 61.186-34.502a10.321 10.321 0 0 1 5.097-1.339c3.472 0 6.862 1.736 8.833 4.876 6.024 9.62 3.464 22.286-5.84 28.795l-38.231 26.794a24.985 24.985 0 0 0-9.811 26.912 24.994 24.994 0 0 0 11.636 15.195l30.935 17.895a8.219 8.219 0 0 0 7.156.515l66.209-26.404a16.027 16.027 0 0 1 5.965-1.147 16.124 16.124 0 0 1 14.482 9.047c2.648 5.421.441 11.966-4.95 14.688L270.928 440.4a14.794 14.794 0 0 1-12.29.471l-53.772-22.138a95.349 95.349 0 0 0-36.26-7.171H52.789c-2.486-14.004-3.899-30.134-3.899-47.308z" style="" fill="#ffd8d8" data-original="#ffd8d8" class=""></path><path d="M50.222 335.952h90.155l50.72-13.592 61.186-34.502a10.321 10.321 0 0 1 5.097-1.339c3.472 0 6.862 1.736 8.833 4.876 6.024 9.62 3.464 22.286-5.84 28.795l-38.231 26.794a24.985 24.985 0 0 0-9.811 26.912 24.994 24.994 0 0 0 11.636 15.195l30.935 17.895a8.218 8.218 0 0 0 7.156.515l66.209-26.404a16.027 16.027 0 0 1 5.965-1.147 16.124 16.124 0 0 1 14.482 9.047c2.648 5.421.441 11.967-4.95 14.688L270.928 440.4a14.794 14.794 0 0 1-12.29.471l-53.772-22.138a95.349 95.349 0 0 0-36.26-7.171H52.789M405.089 100.439c5.287-29.876 15.426-50.088 27.065-50.088 17.096 0 30.956 43.606 30.956 97.398s-13.859 97.398-30.956 97.398c-13.968 0-25.776-29.109-29.629-69.099" style="stroke-width:10;stroke-linecap:round;stroke-linejoin:round;stroke-miterlimit:10;" fill="none" stroke="#1F1F1F" stroke-width="10" stroke-linecap="round" stroke-linejoin="round" stroke-miterlimit="10" data-original="#1F1F1F" class=""></path><path d="M106.911 411.561c-5.287 29.876-15.426 50.088-27.065 50.088-17.096 0-30.956-43.606-30.956-97.398s13.859-97.398 30.956-97.398c13.968 0 25.776 29.109 29.629 69.099" style="stroke-width:10;stroke-linecap:round;stroke-linejoin:round;stroke-miterlimit:10;" fill="none" stroke="#1F1F1F" stroke-width="10" stroke-linecap="round" stroke-linejoin="round" stroke-miterlimit="10" data-original="#1F1F1F" class=""></path><circle cx="423.005" cy="298.429" r="15" style="" fill="#ff4d4d" data-original="#ff4d4d"></circle><circle cx="423.005" cy="298.429" r="15" style="stroke-width:10;stroke-linecap:round;stroke-linejoin:round;stroke-miterlimit:10;" fill="none" stroke="#1F1F1F" stroke-width="10" stroke-linecap="round" stroke-linejoin="round" stroke-miterlimit="10" data-original="#1F1F1F" class=""></circle><circle cx="416.482" cy="391.564" r="15" style="" fill="#ff4d4d" data-original="#ff4d4d"></circle><circle cx="416.482" cy="391.564" r="15" style="stroke-width:10;stroke-linecap:round;stroke-linejoin:round;stroke-miterlimit:10;" fill="none" stroke="#1F1F1F" stroke-width="10" stroke-linecap="round" stroke-linejoin="round" stroke-miterlimit="10" data-original="#1F1F1F" class=""></circle><path d="m380.277 460.611-1.512-1.512c-4.688-4.688-4.688-12.288 0-16.976l1.512-1.512-1.512 1.512c-4.688 4.688-12.288 4.688-16.976 0l-1.512-1.512 1.512 1.512c4.688 4.688 4.688 12.288 0 16.976l-1.512 1.512 1.512-1.512c4.688-4.688 12.288-4.688 16.976 0l1.512 1.512z" style="stroke-width:10;stroke-linecap:round;stroke-linejoin:round;stroke-miterlimit:10;" fill="none" stroke="#ff9c33" stroke-width="10" stroke-linecap="round" stroke-linejoin="round" stroke-miterlimit="10" data-original="#ff9c33"></path><path d="m486.614 293.429-1.512-1.512c-4.688-4.688-4.688-12.288 0-16.976l1.512-1.512-1.512 1.512c-4.688 4.688-12.288 4.688-16.976 0l-1.512-1.512 1.512 1.512c4.688 4.688 4.688 12.288 0 16.976l-1.512 1.512 1.512-1.512c4.688-4.688 12.288-4.688 16.976 0l1.512 1.512z" style="stroke-width:10;stroke-linecap:round;stroke-linejoin:round;stroke-miterlimit:10;" fill="none" stroke="#6c6cff" stroke-width="10" stroke-linecap="round" stroke-linejoin="round" stroke-miterlimit="10" data-original="#6c6cff" class=""></path><path d="m89.183 224.121-1.512-1.512c-4.688-4.688-4.688-12.288 0-16.976l1.512-1.512-1.512 1.512c-4.688 4.688-12.288 4.688-16.976 0l-1.512-1.512 1.512 1.512c4.688 4.688 4.688 12.288 0 16.976l-1.512 1.512 1.512-1.512c4.688-4.688 12.288-4.688 16.976 0l1.512 1.512z" style="stroke-width:10;stroke-linecap:round;stroke-linejoin:round;stroke-miterlimit:10;" fill="none" stroke="#ff6c6c" stroke-width="10" stroke-linecap="round" stroke-linejoin="round" stroke-miterlimit="10" data-original="#ff6c6c"></path><path d="M137.489 76.989v-10a5 5 0 0 1 5-5h10a5 5 0 0 1 5 5v10a5 5 0 0 1-5 5h-10a5 5 0 0 1-5-5z" style="stroke-width:10;stroke-linecap:round;stroke-linejoin:round;stroke-miterlimit:10;" fill="none" stroke="#6c6cff" stroke-width="10" stroke-linecap="round" stroke-linejoin="round" stroke-miterlimit="10" data-original="#6c6cff" class=""></path><path d="M422.817 467.097v-10a5 5 0 0 1 5-5h10a5 5 0 0 1 5 5v10a5 5 0 0 1-5 5h-10a5 5 0 0 1-5-5z" style="stroke-width:10;stroke-linecap:round;stroke-linejoin:round;stroke-miterlimit:10;" fill="none" stroke="#ff6c6c" stroke-width="10" stroke-linecap="round" stroke-linejoin="round" stroke-miterlimit="10" data-original="#ff6c6c"></path></g></svg>